ffmpeg log: ffmpeg version 3.2.2 Copyright (c) 2000-2016 the FFmpeg developers


ffmpeg log:   built with gcc 5.4.0 (GCC)


ffmpeg log:   configuration: --enable-gpl --enable-version3 --enable-dxva2 --enable-libmfx --enable-nvenc --enable-avisynth --enable-bzlib --enable-fontconfig --enable-frei0r --enable-gnutls --enable-iconv --enable-libass --enable-libbluray --enable-libbs2b --enable-libcaca --enable-libfreetype --enable-libgme --enable-libgsm --enable-libilbc --enable-libmodplug --enable-libmp3lame --enable-libopencore-amrnb --enable-libopencore-amrwb --enable-libopenh264 --enable-libopenjpeg --enable-libopus --enable-librtmp --enable-libsnappy --enable-libsoxr --enable-libspeex --enable-libtheora --enable-libtwolame --enable-libvidstab --enable-libvo-amrwbenc --enable-libvorbis --enable-libvpx --enable-libwavpack --enable-libwebp --enable-libx264 --enable-libx265 --enable-libxavs --enable-libxvid --enable-libzimg --enable-lzma --enable-decklink --enable-zlib


ffmpeg log:   libavutil      55. 34.100 / 55. 34.100


ffmpeg log:   libavcodec     57. 64.101 / 57. 64.101


ffmpeg log:   libavformat    57. 56.100 / 57. 56.100


ffmpeg log:   libavdevice    57.  1.100 / 57.  1.100


ffmpeg log:   libavfilter     6. 65.100 /  6. 65.100


ffmpeg log:   libswscale      4.  2.100 /  4.  2.100


ffmpeg log:   libswresample   2.  3.100 /  2.  3.100


ffmpeg log:   libpostproc    54.  1.100 / 54.  1.100


ffmpeg log: Input #0, h264, from 'pipe:':


ffmpeg log:   Duration: N/A, bitrate: N/A


ffmpeg log:     Stream #0:0: Video: h264 (Main), yuvj420p(pc, bt709, progressive), 2688x1520 [SAR 1:1 DAR 168:95], 20 fps, 20 tbr, 1200k tbn, 40 tbc


ffmpeg log: [mjpeg @ 05ad0880] removing common factors from framerate


ffmpeg log: Output #0, mjpeg, to 'pipe:':


ffmpeg log:   Metadata:


ffmpeg log:     encoder         : Lavf57.56.100


ffmpeg log:     Stream #0:0: Video: mjpeg, yuvj420p(pc), 2688x1520 [SAR 1:1 DAR 168:95], q=2-31, 200 kb/s, 20 fps, 20 tbn, 20 tbc


ffmpeg log:     Metadata:


ffmpeg log:       encoder         : Lavc57.64.101 mjpeg


ffmpeg log:     Side data:


ffmpeg log:       cpb: bitrate max/min/avg: 0/0/200000 buffer size: 0 vbv_delay: -1


ffmpeg log: Stream mapping:


ffmpeg log:   Stream #0:0 -> #0:0 (h264 (native) -> mjpeg (native))


ffmpeg log: frame=   15 fps=0.0 q=24.8 size=    1858kB time=00:00:00.75 bitrate=20294.5kbits/s speed=1.48x    


ffmpeg log: frame=   34 fps= 33 q=24.8 size=    3655kB time=00:00:01.70 bitrate=17613.8kbits/s speed=1.66x    


ffmpeg log: frame=   55 fps= 36 q=24.8 size=    5634kB time=00:00:02.75 bitrate=16782.7kbits/s speed=1.78x    


ffmpeg log: frame=   78 fps= 38 q=24.8 size=    7795kB time=00:00:03.90 bitrate=16372.6kbits/s speed=1.89x    


ffmpeg log: frame=   99 fps= 38 q=24.8 size=    9766kB time=00:00:04.95 bitrate=16162.2kbits/s speed=1.91x    


ffmpeg log: frame=  118 fps= 38 q=24.8 size=   11535kB time=00:00:05.90 bitrate=16016.3kbits/s speed=1.88x    


ffmpeg log: frame=  137 fps= 38 q=24.8 size=   13310kB time=00:00:06.85 bitrate=15917.3kbits/s speed=1.88x    


ffmpeg log: frame=  147 fps= 30 q=24.8 size=   14244kB time=00:00:07.35 bitrate=15875.2kbits/s speed= 1.5x    


ffmpeg log: frame=  148 fps= 20 q=24.8 size=   14337kB time=00:00:07.40 bitrate=15871.3kbits/s speed=1.01x    


ffmpeg log: frame=  149 fps= 15 q=24.8 size=   14430kB time=00:00:07.45 bitrate=15867.5kbits/s speed=0.757x    


ffmpeg log: frame=  150 fps= 12 q=24.8 size=   14524kB time=00:00:07.50 bitrate=15863.8kbits/s speed=0.607x    


ffmpeg log: frame=  152 fps= 10 q=24.8 size=   14708kB time=00:00:07.60 bitrate=15854.1kbits/s speed=0.51x    


ffmpeg log: frame=  153 fps=8.8 q=24.8 size=   14801kB time=00:00:07.65 bitrate=15849.5kbits/s speed=0.441x    


ffmpeg log: frame=  154 fps=7.8 q=24.8 size=   14893kB time=00:00:07.70 bitrate=15844.8kbits/s speed=0.388x    


ffmpeg log: frame=  155 fps=6.9 q=24.8 size=   14986kB time=00:00:07.75 bitrate=15840.4kbits/s speed=0.346x    


ffmpeg log: frame=  157 fps=6.3 q=24.8 size=   15171kB time=00:00:07.85 bitrate=15831.6kbits/s speed=0.316x    


ffmpeg log: frame=  158 fps=5.8 q=24.8 size=   15263kB time=00:00:07.90 bitrate=15827.3kbits/s speed=0.289x    


ffmpeg log: frame=  159 fps=5.3 q=24.8 size=   15355kB time=00:00:07.95 bitrate=15822.9kbits/s speed=0.266x    


ffmpeg log: frame=  160 fps=4.9 q=24.8 size=   15448kB time=00:00:08.00 bitrate=15818.6kbits/s speed=0.247x    


ffmpeg log: frame=  162 fps=4.6 q=24.8 size=   15633kB time=00:00:08.10 bitrate=15810.2kbits/s speed=0.232x    


ffmpeg log: frame=  163 fps=4.4 q=24.8 size=   15725kB time=00:00:08.15 bitrate=15806.2kbits/s speed=0.218x    


ffmpeg log: frame=  164 fps=4.1 q=24.8 size=   15818kB time=00:00:08.20 bitrate=15802.4kbits/s speed=0.206x    


ffmpeg log: frame=  165 fps=3.9 q=24.8 size=   15910kB time=00:00:08.25 bitrate=15798.6kbits/s speed=0.195x    


ffmpeg log: frame=  167 fps=3.7 q=24.8 size=   16095kB time=00:00:08.35 bitrate=15790.6kbits/s speed=0.186x    


ffmpeg log: [h264 @ 052c5d40] mmco: unref short failure


ffmpeg log: [h264 @ 052c5d40] illegal short term buffer state detected


ffmpeg log: frame=  168 fps=3.5 q=24.8 size=   16187kB time=00:00:08.40 bitrate=15786.6kbits/s speed=0.177x    


ffmpeg log: frame=  169 fps=3.4 q=24.8 size=   16280kB time=00:00:08.45 bitrate=15782.9kbits/s speed=0.169x    


ffmpeg log: frame=  170 fps=3.2 q=24.8 size=   16372kB time=00:00:08.50 bitrate=15779.2kbits/s speed=0.161x    


ffmpeg log: frame=  172 fps=3.1 q=24.8 size=   16558kB time=00:00:08.60 bitrate=15772.1kbits/s speed=0.157x    


ffmpeg log: frame=  173 fps=3.0 q=24.8 size=   16650kB time=00:00:08.65 bitrate=15768.6kbits/s speed=0.151x    


ffmpeg log: frame=  174 fps=2.9 q=24.8 size=   16743kB time=00:00:08.70 bitrate=15765.0kbits/s speed=0.145x    


ffmpeg log: frame=  175 fps=2.8 q=24.8 size=   16835kB time=00:00:08.75 bitrate=15761.5kbits/s speed=0.14x    


ffmpeg log: frame=  177 fps=2.7 q=24.8 size=   17020kB time=00:00:08.85 bitrate=15754.7kbits/s speed=0.136x    


ffmpeg log: frame=  178 fps=2.6 q=24.8 size=   17112kB time=00:00:08.90 bitrate=15751.2kbits/s speed=0.132x    


ffmpeg log: frame=  179 fps=2.6 q=24.8 size=   17205kB time=00:00:08.95 bitrate=15747.8kbits/s speed=0.128x    


ffmpeg log: frame=  180 fps=2.5 q=24.8 size=   17297kB time=00:00:09.00 bitrate=15744.5kbits/s speed=0.124x    


ffmpeg log: frame=  182 fps=2.4 q=24.8 size=   17482kB time=00:00:09.10 bitrate=15737.9kbits/s speed=0.122x    


ffmpeg log: frame=  183 fps=2.4 q=24.8 size=   17575kB time=00:00:09.15 bitrate=15734.7kbits/s speed=0.118x    


ffmpeg log: frame=  184 fps=2.3 q=24.8 size=   17667kB time=00:00:09.20 bitrate=15731.6kbits/s speed=0.115x    


ffmpeg log: frame=  185 fps=2.2 q=24.8 size=   17760kB time=00:00:09.25 bitrate=15728.5kbits/s speed=0.112x    


ffmpeg log: frame=  187 fps=2.2 q=24.8 size=   17945kB time=00:00:09.35 bitrate=15722.3kbits/s speed=0.11x    


ffmpeg log: frame=  188 fps=2.2 q=24.8 size=   18037kB time=00:00:09.40 bitrate=15719.3kbits/s speed=0.108x    


ffmpeg log: frame=  189 fps=2.1 q=24.8 size=   18130kB time=00:00:09.45 bitrate=15716.2kbits/s speed=0.105x    


ffmpeg log: frame=  190 fps=2.1 q=24.8 size=   18222kB time=00:00:09.50 bitrate=15713.3kbits/s speed=0.103x    


ffmpeg log: frame=  192 fps=2.0 q=24.8 size=   18407kB time=00:00:09.60 bitrate=15707.2kbits/s speed=0.101x    


ffmpeg log: [h264 @ 052c5d40] mmco: unref short failure


ffmpeg log: [h264 @ 052c5d40] illegal short term buffer state detected


ffmpeg log: frame=  193 fps=2.0 q=24.8 size=   18499kB time=00:00:09.65 bitrate=15704.1kbits/s speed=0.0991x    


ffmpeg log: frame=  194 fps=1.9 q=24.8 size=   18591kB time=00:00:09.70 bitrate=15701.1kbits/s speed=0.0971x    


ffmpeg log: frame=  195 fps=1.9 q=24.8 size=   18684kB time=00:00:09.75 bitrate=15698.2kbits/s speed=0.0952x    


ffmpeg log: frame=  197 fps=1.9 q=24.8 size=   18869kB time=00:00:09.85 bitrate=15692.6kbits/s speed=0.0939x    


ffmpeg log: frame=  198 fps=1.8 q=24.8 size=   18961kB time=00:00:09.90 bitrate=15689.9kbits/s speed=0.0922x    


ffmpeg log: frame=  199 fps=1.8 q=24.8 size=   19054kB time=00:00:09.95 bitrate=15687.1kbits/s speed=0.0906x    


ffmpeg log: frame=  200 fps=1.8 q=24.8 size=   19146kB time=00:00:10.00 bitrate=15684.4kbits/s speed=0.089x    


ffmpeg log: frame=  202 fps=1.8 q=24.8 size=   19331kB time=00:00:10.10 bitrate=15679.4kbits/s speed=0.0879x    


ffmpeg log: frame=  203 fps=1.7 q=24.8 size=   19424kB time=00:00:10.15 bitrate=15676.8kbits/s speed=0.0865x    


ffmpeg log: frame=  204 fps=1.7 q=24.8 size=   19516kB time=00:00:10.20 bitrate=15674.0kbits/s speed=0.0851x    


ffmpeg log: frame=  205 fps=1.7 q=24.8 size=   19608kB time=00:00:10.25 bitrate=15671.3kbits/s speed=0.0838x    


ffmpeg log: frame=  207 fps=1.7 q=24.8 size=   19793kB time=00:00:10.35 bitrate=15666.2kbits/s speed=0.0829x    


ffmpeg log: frame=  208 fps=1.6 q=24.8 size=   19885kB time=00:00:10.40 bitrate=15663.5kbits/s speed=0.0816x    


ffmpeg log: frame=  209 fps=1.6 q=24.8 size=   19978kB time=00:00:10.45 bitrate=15660.9kbits/s speed=0.0805x    


ffmpeg log: frame=  210 fps=1.6 q=24.8 size=   20070kB time=00:00:10.50 bitrate=15658.3kbits/s speed=0.0793x    


ffmpeg log: frame=  212 fps=1.6 q=24.8 size=   20255kB time=00:00:10.60 bitrate=15653.4kbits/s speed=0.0786x    


ffmpeg log: frame=  213 fps=1.6 q=24.8 size=   20347kB time=00:00:10.65 bitrate=15650.9kbits/s speed=0.0775x    


ffmpeg log: frame=  214 fps=1.5 q=24.8 size=   20439kB time=00:00:10.70 bitrate=15648.5kbits/s speed=0.0765x    


ffmpeg log: frame=  215 fps=1.5 q=24.8 size=   20532kB time=00:00:10.75 bitrate=15646.2kbits/s speed=0.0755x    


ffmpeg log: frame=  217 fps=1.5 q=24.8 size=   20717kB time=00:00:10.85 bitrate=15641.5kbits/s speed=0.0749x    


ffmpeg log: frame=  218 fps=1.5 q=24.8 size=   20809kB time=00:00:10.90 bitrate=15639.0kbits/s speed=0.074x    


ffmpeg log: frame=  219 fps=1.5 q=24.8 size=   20901kB time=00:00:10.95 bitrate=15636.6kbits/s speed=0.0731x    


ffmpeg log: frame=  220 fps=1.4 q=24.8 size=   20993kB time=00:00:11.00 bitrate=15634.2kbits/s speed=0.0722x    


ffmpeg log: frame=  222 fps=1.4 q=24.8 size=   21178kB time=00:00:11.10 bitrate=15629.7kbits/s speed=0.0717x    


ffmpeg log: frame=  223 fps=1.4 q=24.8 size=   21270kB time=00:00:11.15 bitrate=15627.3kbits/s speed=0.0708x    


ffmpeg log: frame=  224 fps=1.4 q=24.8 size=   21362kB time=00:00:11.20 bitrate=15625.1kbits/s speed=0.0701x    


ffmpeg log: frame=  225 fps=1.4 q=24.8 size=   21455kB time=00:00:11.25 bitrate=15622.8kbits/s speed=0.0693x    


ffmpeg log: frame=  227 fps=1.4 q=24.8 size=   21639kB time=00:00:11.35 bitrate=15618.3kbits/s speed=0.0688x    


ffmpeg log: frame=  228 fps=1.4 q=24.8 size=   21731kB time=00:00:11.40 bitrate=15616.1kbits/s speed=0.0681x    


ffmpeg log: frame=  229 fps=1.3 q=24.8 size=   21824kB time=00:00:11.45 bitrate=15614.0kbits/s speed=0.0674x    


ffmpeg log: frame=  230 fps=1.3 q=24.8 size=   21916kB time=00:00:11.50 bitrate=15612.0kbits/s speed=0.0667x    


ffmpeg log: frame=  232 fps=1.3 q=24.8 size=   22101kB time=00:00:11.60 bitrate=15607.9kbits/s speed=0.0663x    


ffmpeg log: frame=  233 fps=1.3 q=24.8 size=   22193kB time=00:00:11.65 bitrate=15605.8kbits/s speed=0.0657x    


ffmpeg log: frame=  234 fps=1.3 q=24.8 size=   22285kB time=00:00:11.70 bitrate=15603.6kbits/s speed=0.0651x    


ffmpeg log: frame=  235 fps=1.3 q=24.8 size=   22378kB time=00:00:11.75 bitrate=15601.5kbits/s speed=0.0644x    


ffmpeg log: frame=  237 fps=1.3 q=24.8 size=   22563kB time=00:00:11.85 bitrate=15597.7kbits/s speed=0.064x    


ffmpeg log: frame=  238 fps=1.3 q=24.8 size=   22655kB time=00:00:11.90 bitrate=15595.8kbits/s speed=0.0635x    


ffmpeg log: frame=  239 fps=1.3 q=24.8 size=   22748kB time=00:00:11.95 bitrate=15594.0kbits/s speed=0.0629x    


ffmpeg log: frame=  240 fps=1.2 q=24.8 size=   22840kB time=00:00:12.00 bitrate=15592.2kbits/s speed=0.0624x    


ffmpeg log: frame=  242 fps=1.2 q=24.8 size=   23025kB time=00:00:12.10 bitrate=15588.7kbits/s speed=0.0621x    


ffmpeg log: frame=  243 fps=1.2 q=24.8 size=   23118kB time=00:00:12.15 bitrate=15586.8kbits/s speed=0.0616x    


ffmpeg log: frame=  244 fps=1.2 q=24.8 size=   23210kB time=00:00:12.20 bitrate=15585.1kbits/s speed=0.061x    


ffmpeg log: frame=  245 fps=1.2 q=24.8 size=   23303kB time=00:00:12.25 bitrate=15583.4kbits/s speed=0.0605x    


ffmpeg log: frame=  247 fps=1.2 q=24.8 size=   23488kB time=00:00:12.35 bitrate=15580.0kbits/s speed=0.0603x    


ffmpeg log: frame=  248 fps=1.2 q=24.8 size=   23580kB time=00:00:12.40 bitrate=15578.2kbits/s speed=0.0598x    


ffmpeg log: frame=  249 fps=1.2 q=24.8 size=   23673kB time=00:00:12.45 bitrate=15576.5kbits/s speed=0.0593x    


ffmpeg log: frame=  250 fps=1.2 q=24.8 size=   23765kB time=00:00:12.50 bitrate=15574.8kbits/s speed=0.0589x    


ffmpeg log: frame=  252 fps=1.2 q=24.8 size=   23950kB time=00:00:12.60 bitrate=15571.4kbits/s speed=0.0586x    


ffmpeg log: frame=  253 fps=1.2 q=24.8 size=   24043kB time=00:00:12.65 bitrate=15569.8kbits/s speed=0.0582x    


ffmpeg log: frame=  254 fps=1.2 q=24.8 size=   24135kB time=00:00:12.70 bitrate=15568.1kbits/s speed=0.0578x    


ffmpeg log: frame=  255 fps=1.1 q=24.8 size=   24228kB time=00:00:12.75 bitrate=15566.5kbits/s speed=0.0573x    


ffmpeg log: frame=  257 fps=1.1 q=24.8 size=   24412kB time=00:00:12.85 bitrate=15563.1kbits/s speed=0.0571x    


ffmpeg log: frame=  258 fps=1.1 q=24.8 size=   24505kB time=00:00:12.90 bitrate=15561.5kbits/s speed=0.0567x    


ffmpeg log: frame=  259 fps=1.1 q=24.8 size=   24597kB time=00:00:12.95 bitrate=15559.9kbits/s speed=0.0563x    


ffmpeg log: frame=  260 fps=1.1 q=24.8 size=   24690kB time=00:00:13.00 bitrate=15558.3kbits/s speed=0.0559x    


ffmpeg log: frame=  262 fps=1.1 q=24.8 size=   24874kB time=00:00:13.10 bitrate=15555.0kbits/s speed=0.0558x    


ffmpeg log: frame=  263 fps=1.1 q=24.8 size=   24967kB time=00:00:13.15 bitrate=15553.5kbits/s speed=0.0554x    


ffmpeg log: frame=  264 fps=1.1 q=24.8 size=   25060kB time=00:00:13.20 bitrate=15552.1kbits/s speed=0.055x    


ffmpeg log: frame=  265 fps=1.1 q=24.8 size=   25152kB time=00:00:13.25 bitrate=15550.7kbits/s speed=0.0547x    


ffmpeg log: frame=  267 fps=1.1 q=24.8 size=   25338kB time=00:00:13.35 bitrate=15548.1kbits/s speed=0.0544x    


ffmpeg log: frame=  268 fps=1.1 q=24.8 size=   25430kB time=00:00:13.40 bitrate=15546.6kbits/s speed=0.0541x    


ffmpeg log: frame=  269 fps=1.1 q=24.8 size=   25523kB time=00:00:13.45 bitrate=15545.4kbits/s speed=0.0538x    


ffmpeg log: frame=  270 fps=1.1 q=24.8 size=   25616kB time=00:00:13.50 bitrate=15544.3kbits/s speed=0.0535x    


ffmpeg log: frame=  272 fps=1.1 q=24.8 size=   25802kB time=00:00:13.60 bitrate=15541.7kbits/s speed=0.0534x    


ffmpeg log: frame=  273 fps=1.1 q=24.8 size=   25894kB time=00:00:13.65 bitrate=15540.4kbits/s speed=0.053x    


ffmpeg log: frame=  274 fps=1.1 q=24.8 size=   25987kB time=00:00:13.70 bitrate=15539.0kbits/s speed=0.0527x    


ffmpeg log: frame=  275 fps=1.0 q=24.8 size=   26080kB time=00:00:13.75 bitrate=15537.7kbits/s speed=0.0524x    


ffmpeg log: frame=  277 fps=1.0 q=24.8 size=   26265kB time=00:00:13.85 bitrate=15535.0kbits/s speed=0.0523x    


ffmpeg log: frame=  278 fps=1.0 q=24.8 size=   26357kB time=00:00:13.90 bitrate=15533.6kbits/s speed=0.052x    


ffmpeg log: frame=  279 fps=1.0 q=24.8 size=   26450kB time=00:00:13.95 bitrate=15532.2kbits/s speed=0.0517x    


ffmpeg log: frame=  280 fps=1.0 q=24.8 size=   26542kB time=00:00:14.00 bitrate=15530.8kbits/s speed=0.0514x    


ffmpeg log: frame=  282 fps=1.0 q=24.8 size=   26727kB time=00:00:14.10 bitrate=15528.2kbits/s speed=0.0513x    


ffmpeg log: frame=  283 fps=1.0 q=24.8 size=   26820kB time=00:00:14.15 bitrate=15526.9kbits/s speed=0.051x    


ffmpeg log: frame=  284 fps=1.0 q=24.8 size=   26912kB time=00:00:14.20 bitrate=15525.6kbits/s speed=0.0507x    


ffmpeg log: frame=  285 fps=1.0 q=24.8 size=   27005kB time=00:00:14.25 bitrate=15524.4kbits/s speed=0.0505x    


ffmpeg log: frame=  287 fps=1.0 q=24.8 size=   27189kB time=00:00:14.35 bitrate=15521.7kbits/s speed=0.0504x    


ffmpeg log: frame=  288 fps=1.0 q=24.8 size=   27282kB time=00:00:14.40 bitrate=15520.3kbits/s speed=0.0501x    


ffmpeg log: frame=  289 fps=1.0 q=24.8 size=   27374kB time=00:00:14.45 bitrate=15519.0kbits/s speed=0.0499x    


ffmpeg log: frame=  290 fps=1.0 q=24.8 size=   27467kB time=00:00:14.50 bitrate=15517.8kbits/s speed=0.0496x    


ffmpeg log: frame=  292 fps=1.0 q=24.8 size=   27652kB time=00:00:14.60 bitrate=15515.3kbits/s speed=0.0495x    


ffmpeg log: frame=  293 fps=1.0 q=24.8 size=   27744kB time=00:00:14.65 bitrate=15514.0kbits/s speed=0.0493x    


ffmpeg log: frame=  294 fps=1.0 q=24.8 size=   27837kB time=00:00:14.70 bitrate=15512.8kbits/s speed=0.049x    


ffmpeg log: frame=  295 fps=1.0 q=24.8 size=   27929kB time=00:00:14.75 bitrate=15511.7kbits/s speed=0.0488x    


ffmpeg log: frame=  297 fps=1.0 q=24.8 size=   28115kB time=00:00:14.85 bitrate=15509.4kbits/s speed=0.0487x    


ffmpeg log: frame=  298 fps=1.0 q=24.8 size=   28207kB time=00:00:14.90 bitrate=15508.1kbits/s speed=0.0485x    


ffmpeg log: frame=  299 fps=1.0 q=24.8 size=   28300kB time=00:00:14.95 bitrate=15507.0kbits/s speed=0.0482x    


ffmpeg log: frame=  300 fps=1.0 q=24.8 size=   28392kB time=00:00:15.00 bitrate=15505.9kbits/s speed=0.048x    


ffmpeg log: frame=  302 fps=1.0 q=24.8 size=   28577kB time=00:00:15.10 bitrate=15503.6kbits/s speed=0.048x    


ffmpeg log: frame=  303 fps=1.0 q=24.8 size=   28670kB time=00:00:15.15 bitrate=15502.4kbits/s speed=0.0477x    


ffmpeg log: frame=  304 fps=1.0 q=24.8 size=   28762kB time=00:00:15.20 bitrate=15501.3kbits/s speed=0.0475x    


ffmpeg log: frame=  305 fps=0.9 q=24.8 size=   28855kB time=00:00:15.25 bitrate=15500.2kbits/s speed=0.0473x    


ffmpeg log: frame=  307 fps=0.9 q=24.8 size=   29040kB time=00:00:15.35 bitrate=15498.0kbits/s speed=0.0473x    


ffmpeg log: frame=  308 fps=0.9 q=24.8 size=   29132kB time=00:00:15.40 bitrate=15496.9kbits/s speed=0.047x    


ffmpeg log: frame=  309 fps=0.9 q=24.8 size=   29225kB time=00:00:15.45 bitrate=15496.0kbits/s speed=0.0468x    


ffmpeg log: frame=  310 fps=0.9 q=24.8 size=   29318kB time=00:00:15.50 bitrate=15495.0kbits/s speed=0.0466x    


ffmpeg log: frame=  312 fps=0.9 q=24.8 size=   29502kB time=00:00:15.60 bitrate=15492.1kbits/s speed=0.0466x    


ffmpeg log: frame=  313 fps=0.9 q=24.8 size=   29594kB time=00:00:15.65 bitrate=15491.0kbits/s speed=0.0464x    


ffmpeg log: frame=  314 fps=0.9 q=24.8 size=   29687kB time=00:00:15.70 bitrate=15490.0kbits/s speed=0.0462x    


ffmpeg log: frame=  315 fps=0.9 q=24.8 size=   29779kB time=00:00:15.75 bitrate=15489.1kbits/s speed=0.046x    


ffmpeg log: frame=  317 fps=0.9 q=24.8 size=   29964kB time=00:00:15.85 bitrate=15486.9kbits/s speed=0.046x    


ffmpeg log: frame=  318 fps=0.9 q=24.8 size=   30057kB time=00:00:15.90 bitrate=15486.0kbits/s speed=0.0458x    


ffmpeg log: frame=  319 fps=0.9 q=24.8 size=   30150kB time=00:00:15.95 bitrate=15485.1kbits/s speed=0.0456x    


ffmpeg log: frame=  320 fps=0.9 q=24.8 size=   30243kB time=00:00:16.00 bitrate=15484.2kbits/s speed=0.0454x    


ffmpeg log: frame=  322 fps=0.9 q=24.8 size=   30428kB time=00:00:16.10 bitrate=15482.5kbits/s speed=0.0454x    


ffmpeg log: frame=  323 fps=0.9 q=24.8 size=   30521kB time=00:00:16.15 bitrate=15481.5kbits/s speed=0.0452x    


ffmpeg log: frame=  324 fps=0.9 q=24.8 size=   30614kB time=00:00:16.20 bitrate=15480.6kbits/s speed=0.045x    


ffmpeg log: frame=  325 fps=0.9 q=24.8 size=   30706kB time=00:00:16.25 bitrate=15479.7kbits/s speed=0.0448x    


ffmpeg log: frame=  327 fps=0.9 q=24.8 size=   30892kB time=00:00:16.35 bitrate=15478.0kbits/s speed=0.0448x    


ffmpeg log: frame=  328 fps=0.9 q=24.8 size=   30984kB time=00:00:16.40 bitrate=15477.1kbits/s speed=0.0446x    


ffmpeg log: frame=  329 fps=0.9 q=24.8 size=   31077kB time=00:00:16.45 bitrate=15476.2kbits/s speed=0.0445x    


ffmpeg log: frame=  330 fps=0.9 q=24.8 size=   31170kB time=00:00:16.50 bitrate=15475.4kbits/s speed=0.0443x    


ffmpeg log: frame=  332 fps=0.9 q=24.8 size=   31355kB time=00:00:16.60 bitrate=15473.5kbits/s speed=0.0443x    


ffmpeg log: frame=  333 fps=0.9 q=24.8 size=   31448kB time=00:00:16.65 bitrate=15472.7kbits/s speed=0.0441x    


ffmpeg log: frame=  334 fps=0.9 q=24.8 size=   31541kB time=00:00:16.70 bitrate=15471.9kbits/s speed=0.044x    


ffmpeg log: frame=  335 fps=0.9 q=24.8 size=   31633kB time=00:00:16.75 bitrate=15471.1kbits/s speed=0.0438x    


ffmpeg log: frame=  337 fps=0.9 q=24.8 size=   31819kB time=00:00:16.85 bitrate=15469.4kbits/s speed=0.0438x    


ffmpeg log: frame=  338 fps=0.9 q=24.8 size=   31911kB time=00:00:16.90 bitrate=15468.5kbits/s speed=0.0436x    


ffmpeg log: frame=  339 fps=0.9 q=24.8 size=   32004kB time=00:00:16.95 bitrate=15467.6kbits/s speed=0.0435x    


ffmpeg log: frame=  340 fps=0.9 q=24.8 size=   32096kB time=00:00:17.00 bitrate=15466.7kbits/s speed=0.0433x    


ffmpeg log: frame=  342 fps=0.9 q=24.8 size=   32282kB time=00:00:17.10 bitrate=15465.0kbits/s speed=0.0433x    


ffmpeg log: frame=  343 fps=0.9 q=24.8 size=   32374kB time=00:00:17.15 bitrate=15464.1kbits/s speed=0.0432x    


ffmpeg log: frame=  344 fps=0.9 q=24.8 size=   32467kB time=00:00:17.20 bitrate=15463.3kbits/s speed=0.043x    


ffmpeg log: frame=  345 fps=0.9 q=24.8 size=   32560kB time=00:00:17.25 bitrate=15462.5kbits/s speed=0.0429x    


ffmpeg log: frame=  347 fps=0.9 q=24.8 size=   32745kB time=00:00:17.35 bitrate=15460.7kbits/s speed=0.0428x    


ffmpeg log: frame=  348 fps=0.9 q=24.8 size=   32837kB time=00:00:17.40 bitrate=15459.9kbits/s speed=0.0426x    


ffmpeg log: frame=  349 fps=0.9 q=24.8 size=   32930kB time=00:00:17.45 bitrate=15459.0kbits/s speed=0.0426x    


ffmpeg log: frame=  350 fps=0.8 q=24.8 size=   33022kB time=00:00:17.50 bitrate=15458.2kbits/s speed=0.0424x    


ffmpeg log: frame=  352 fps=0.8 q=24.8 size=   33207kB time=00:00:17.60 bitrate=15456.6kbits/s speed=0.0424x    


ffmpeg log: frame=  353 fps=0.8 q=24.8 size=   33300kB time=00:00:17.65 bitrate=15455.8kbits/s speed=0.0423x    


ffmpeg log: frame=  354 fps=0.8 q=24.8 size=   33393kB time=00:00:17.70 bitrate=15455.0kbits/s speed=0.0422x    


ffmpeg log: frame=  355 fps=0.8 q=24.8 size=   33485kB time=00:00:17.75 bitrate=15454.3kbits/s speed=0.042x    


ffmpeg log: frame=  357 fps=0.8 q=24.8 size=   33671kB time=00:00:17.85 bitrate=15452.7kbits/s speed=0.042x    


ffmpeg log: frame=  358 fps=0.8 q=24.8 size=   33763kB time=00:00:17.90 bitrate=15451.8kbits/s speed=0.0419x    


ffmpeg log: frame=  359 fps=0.8 q=24.8 size=   33856kB time=00:00:17.95 bitrate=15451.0kbits/s speed=0.0418x    


ffmpeg log: frame=  360 fps=0.8 q=24.8 size=   33948kB time=00:00:18.00 bitrate=15450.2kbits/s speed=0.0416x    


ffmpeg log: frame=  362 fps=0.8 q=24.8 size=   34133kB time=00:00:18.10 bitrate=15448.5kbits/s speed=0.0416x    


ffmpeg log: frame=  363 fps=0.8 q=24.8 size=   34225kB time=00:00:18.15 bitrate=15447.6kbits/s speed=0.0415x    


ffmpeg log: frame=  364 fps=0.8 q=24.8 size=   34318kB time=00:00:18.20 bitrate=15446.9kbits/s speed=0.0414x    


ffmpeg log: frame=  365 fps=0.8 q=24.8 size=   34411kB time=00:00:18.25 bitrate=15446.2kbits/s speed=0.0413x    


ffmpeg log: frame=  367 fps=0.8 q=24.8 size=   34595kB time=00:00:18.35 bitrate=15444.3kbits/s speed=0.0412x    


ffmpeg log: frame=  368 fps=0.8 q=24.8 size=   34687kB time=00:00:18.40 bitrate=15443.4kbits/s speed=0.0411x    


ffmpeg log: frame=  369 fps=0.8 q=24.8 size=   34780kB time=00:00:18.45 bitrate=15442.5kbits/s speed=0.041x    


ffmpeg log: frame=  370 fps=0.8 q=24.8 size=   34872kB time=00:00:18.50 bitrate=15441.7kbits/s speed=0.0409x    


ffmpeg log: frame=  372 fps=0.8 q=24.8 size=   35056kB time=00:00:18.60 bitrate=15439.8kbits/s speed=0.0409x    


ffmpeg log: frame=  373 fps=0.8 q=24.8 size=   35148kB time=00:00:18.65 bitrate=15438.9kbits/s speed=0.0408x    


ffmpeg log: frame=  374 fps=0.8 q=24.8 size=   35240kB time=00:00:18.70 bitrate=15437.9kbits/s speed=0.0407x    


ffmpeg log: frame=  375 fps=0.8 q=24.8 size=   35332kB time=00:00:18.75 bitrate=15436.9kbits/s speed=0.0406x    


ffmpeg log: frame=  377 fps=0.8 q=24.8 size=   35517kB time=00:00:18.85 bitrate=15435.2kbits/s speed=0.0405x    


ffmpeg log: frame=  378 fps=0.8 q=24.8 size=   35609kB time=00:00:18.90 bitrate=15434.2kbits/s speed=0.0404x    


ffmpeg log: frame=  379 fps=0.8 q=24.8 size=   35701kB time=00:00:18.95 bitrate=15433.4kbits/s speed=0.0403x    


ffmpeg log: frame=  380 fps=0.8 q=24.8 size=   35793kB time=00:00:19.00 bitrate=15432.6kbits/s speed=0.0402x    


ffmpeg log: frame=  382 fps=0.8 q=24.8 size=   35978kB time=00:00:19.10 bitrate=15430.9kbits/s speed=0.0402x    


ffmpeg log: frame=  383 fps=0.8 q=24.8 size=   36070kB time=00:00:19.15 bitrate=15430.0kbits/s speed=0.0401x    


ffmpeg log: frame=  384 fps=0.8 q=24.8 size=   36162kB time=00:00:19.20 bitrate=15429.2kbits/s speed=0.04x    


ffmpeg log: frame=  385 fps=0.8 q=24.8 size=   36254kB time=00:00:19.25 bitrate=15428.3kbits/s speed=0.0399x    


ffmpeg log: frame=  387 fps=0.8 q=24.8 size=   36438kB time=00:00:19.35 bitrate=15426.5kbits/s speed=0.0399x    


ffmpeg log: frame=  388 fps=0.8 q=24.8 size=   36530kB time=00:00:19.40 bitrate=15425.6kbits/s speed=0.0398x    


ffmpeg log: frame=  389 fps=0.8 q=24.8 size=   36622kB time=00:00:19.45 bitrate=15424.7kbits/s speed=0.0397x    


ffmpeg log: frame=  390 fps=0.8 q=24.8 size=   36715kB time=00:00:19.50 bitrate=15423.9kbits/s speed=0.0396x    


ffmpeg log: frame=  392 fps=0.8 q=24.8 size=   36899kB time=00:00:19.60 bitrate=15422.1kbits/s speed=0.0396x    


ffmpeg log: frame=  393 fps=0.8 q=24.8 size=   36991kB time=00:00:19.65 bitrate=15421.3kbits/s speed=0.0395x    


ffmpeg log: frame=  394 fps=0.8 q=24.8 size=   37083kB time=00:00:19.70 bitrate=15420.4kbits/s speed=0.0394x    


ffmpeg log: frame=  395 fps=0.8 q=24.8 size=   37175kB time=00:00:19.75 bitrate=15419.6kbits/s speed=0.0393x    


ffmpeg log: frame=  397 fps=0.8 q=24.8 size=   37359kB time=00:00:19.85 bitrate=15417.9kbits/s speed=0.0393x    


ffmpeg log: frame=  398 fps=0.8 q=24.8 size=   37451kB time=00:00:19.90 bitrate=15417.1kbits/s speed=0.0392x    


ffmpeg log: frame=  399 fps=0.8 q=24.8 size=   37543kB time=00:00:19.95 bitrate=15416.3kbits/s speed=0.0391x    


ffmpeg log: frame=  400 fps=0.8 q=24.8 size=   37636kB time=00:00:20.00 bitrate=15415.5kbits/s speed=0.039x    


ffmpeg log: frame=  402 fps=0.8 q=24.8 size=   37820kB time=00:00:20.10 bitrate=15413.9kbits/s speed=0.039x    


ffmpeg log: frame=  403 fps=0.8 q=24.8 size=   37913kB time=00:00:20.15 bitrate=15413.7kbits/s speed=0.0389x    


ffmpeg log: frame=  404 fps=0.8 q=24.8 size=   38006kB time=00:00:20.20 bitrate=15413.0kbits/s speed=0.0389x    


ffmpeg log: frame=  405 fps=0.8 q=24.8 size=   38098kB time=00:00:20.25 bitrate=15412.4kbits/s speed=0.0388x    


ffmpeg log: frame=  407 fps=0.8 q=24.8 size=   38283kB time=00:00:20.35 bitrate=15410.9kbits/s speed=0.0388x    


ffmpeg log: frame=  408 fps=0.8 q=24.8 size=   38375kB time=00:00:20.40 bitrate=15410.1kbits/s speed=0.0387x    


ffmpeg log: frame=  409 fps=0.8 q=24.8 size=   38467kB time=00:00:20.45 bitrate=15409.4kbits/s speed=0.0386x    


ffmpeg log: frame=  410 fps=0.8 q=24.8 size=   38559kB time=00:00:20.50 bitrate=15408.7kbits/s speed=0.0385x    


